# xmcd
#
# Track frame offsets: 
#        150
#        21375
#        44055
#        64075
#        85350
#        105370
#        128587
#        152167
#        173587
#        195725
#        215537
#        233987
#        253712
#        272737
#        293912
#
# Disc length: 4160 seconds
#
# Revision: 79
# Processed by: cddbd v1.5.2PL0 Copyright (c) Steve Scherf et al.
# Submitted via: ExactAudioCopy v1.0b3
#
DISCID=d9103e0f
DTITLE=小田和正 - 自己ベスト
DYEAR=2002
DGENRE=JPop
TTITLE0=キラキラ(2002)
TTITLE1=秋の気配(1977)
TTITLE2=愛を止めないで(1979)
TTITLE3=さよなら(1979)
TTITLE4=Yes-No(1980)
TTITLE5=言葉にできない(1982)
TTITLE6=緑の日々(1984)
TTITLE7=Oh!Yeah!(1991)
TTITLE8=ラブ・ストーリーは突然に(1991)
TTITLE9=my home town(1993)
TTITLE10=風の坂道(1993)
TTITLE11=伝えたいことがあるんだ(1997)
TTITLE12=緑の街(1997)
TTITLE13=風のように(1997)
TTITLE14=woh woh(2000)
EXTD=YEAR: 2002
EXTT0=
EXTT1=
EXTT2=
EXTT3=
EXTT4=
EXTT5=
EXTT6=
EXTT7=
EXTT8=
EXTT9=
EXTT10=
EXTT11=
EXTT12=
EXTT13=
EXTT14=
PLAYORDER=
